<svg width="307" height="228" viewBox="0 0 307 228" fill="none" xmlns="http://www.w3.org/2000/svg">
<circle cx="55" cy="55" r="44" stroke="#2F49C0" stroke-width="22"/>
<path d="M16.31 150.47C17.4767 148.65 19.0867 147.18 21.14 146.06C23.1933 144.94 25.5967 144.38 28.35 144.38C31.57 144.38 34.4867 145.197 37.1 146.83C39.7133 148.463 41.7667 150.797 43.26 153.83C44.8 156.863 45.57 160.387 45.57 164.4C45.57 168.413 44.8 171.96 43.26 175.04C41.7667 178.073 39.7133 180.43 37.1 182.11C34.4867 183.743 31.57 184.56 28.35 184.56C25.6433 184.56 23.24 184 21.14 182.88C19.0867 181.76 17.4767 180.313 16.31 178.54V202.62H4.34V144.94H16.31V150.47ZM33.39 164.4C33.39 161.413 32.55 159.08 30.87 157.4C29.2367 155.673 27.2067 154.81 24.78 154.81C22.4 154.81 20.37 155.673 18.69 157.4C17.0567 159.127 16.24 161.483 16.24 164.47C16.24 167.457 17.0567 169.813 18.69 171.54C20.37 173.267 22.4 174.13 24.78 174.13C27.16 174.13 29.19 173.267 30.87 171.54C32.55 169.767 33.39 167.387 33.39 164.4ZM69.6298 184.56C65.8031 184.56 62.3498 183.743 59.2698 182.11C56.2364 180.477 53.8331 178.143 52.0598 175.11C50.3331 172.077 49.4698 168.53 49.4698 164.47C49.4698 160.457 50.3564 156.933 52.1298 153.9C53.9031 150.82 56.3298 148.463 59.4098 146.83C62.4898 145.197 65.9431 144.38 69.7698 144.38C73.5964 144.38 77.0498 145.197 80.1298 146.83C83.2098 148.463 85.6364 150.82 87.4098 153.9C89.1831 156.933 90.0698 160.457 90.0698 164.47C90.0698 168.483 89.1598 172.03 87.3398 175.11C85.5664 178.143 83.1164 180.477 79.9898 182.11C76.9098 183.743 73.4564 184.56 69.6298 184.56ZM69.6298 174.2C71.9164 174.2 73.8531 173.36 75.4398 171.68C77.0731 170 77.8898 167.597 77.8898 164.47C77.8898 161.343 77.0964 158.94 75.5098 157.26C73.9698 155.58 72.0564 154.74 69.7698 154.74C67.4364 154.74 65.4998 155.58 63.9598 157.26C62.4198 158.893 61.6498 161.297 61.6498 164.47C61.6498 167.597 62.3964 170 63.8898 171.68C65.4298 173.36 67.3431 174.2 69.6298 174.2ZM108.39 151.45C109.79 149.303 111.54 147.623 113.64 146.41C115.74 145.15 118.073 144.52 120.64 144.52V157.19H117.35C114.363 157.19 112.123 157.843 110.63 159.15C109.137 160.41 108.39 162.65 108.39 165.87V184H96.4201V144.94H108.39V151.45ZM148.131 173.85V184H142.041C137.701 184 134.318 182.95 131.891 180.85C129.465 178.703 128.251 175.227 128.251 170.42V154.88H123.491V144.94H128.251V135.42H140.221V144.94H148.061V154.88H140.221V170.56C140.221 171.727 140.501 172.567 141.061 173.08C141.621 173.593 142.555 173.85 143.861 173.85H148.131ZM174.399 154.88H167.959V184H155.989V154.88H151.649V144.94H155.989V143.82C155.989 139.013 157.366 135.373 160.119 132.9C162.872 130.38 166.909 129.12 172.229 129.12C173.116 129.12 173.769 129.143 174.189 129.19V139.34C171.902 139.2 170.292 139.527 169.359 140.32C168.426 141.113 167.959 142.537 167.959 144.59V144.94H174.399V154.88ZM197.804 184.56C193.977 184.56 190.524 183.743 187.444 182.11C184.41 180.477 182.007 178.143 180.234 175.11C178.507 172.077 177.644 168.53 177.644 164.47C177.644 160.457 178.53 156.933 180.304 153.9C182.077 150.82 184.504 148.463 187.584 146.83C190.664 145.197 194.117 144.38 197.944 144.38C201.77 144.38 205.224 145.197 208.304 146.83C211.384 148.463 213.81 150.82 215.584 153.9C217.357 156.933 218.244 160.457 218.244 164.47C218.244 168.483 217.334 172.03 215.514 175.11C213.74 178.143 211.29 180.477 208.164 182.11C205.084 183.743 201.63 184.56 197.804 184.56ZM197.804 174.2C200.09 174.2 202.027 173.36 203.614 171.68C205.247 170 206.064 167.597 206.064 164.47C206.064 161.343 205.27 158.94 203.684 157.26C202.144 155.58 200.23 154.74 197.944 154.74C195.61 154.74 193.674 155.58 192.134 157.26C190.594 158.893 189.824 161.297 189.824 164.47C189.824 167.597 190.57 170 192.064 171.68C193.604 173.36 195.517 174.2 197.804 174.2ZM236.564 132.2V184H224.594V132.2H236.564ZM251.258 140.88C249.158 140.88 247.432 140.273 246.078 139.06C244.772 137.8 244.118 136.26 244.118 134.44C244.118 132.573 244.772 131.033 246.078 129.82C247.432 128.56 249.158 127.93 251.258 127.93C253.312 127.93 254.992 128.56 256.298 129.82C257.652 131.033 258.328 132.573 258.328 134.44C258.328 136.26 257.652 137.8 256.298 139.06C254.992 140.273 253.312 140.88 251.258 140.88ZM257.208 144.94V184H245.238V144.94H257.208ZM283.663 184.56C279.836 184.56 276.383 183.743 273.303 182.11C270.27 180.477 267.866 178.143 266.093 175.11C264.366 172.077 263.503 168.53 263.503 164.47C263.503 160.457 264.39 156.933 266.163 153.9C267.936 150.82 270.363 148.463 273.443 146.83C276.523 145.197 279.976 144.38 283.803 144.38C287.63 144.38 291.083 145.197 294.163 146.83C297.243 148.463 299.67 150.82 301.443 153.9C303.216 156.933 304.103 160.457 304.103 164.47C304.103 168.483 303.193 172.03 301.373 175.11C299.6 178.143 297.15 180.477 294.023 182.11C290.943 183.743 287.49 184.56 283.663 184.56ZM283.663 174.2C285.95 174.2 287.886 173.36 289.473 171.68C291.106 170 291.923 167.597 291.923 164.47C291.923 161.343 291.13 158.94 289.543 157.26C288.003 155.58 286.09 154.74 283.803 154.74C281.47 154.74 279.533 155.58 277.993 157.26C276.453 158.893 275.683 161.297 275.683 164.47C275.683 167.597 276.43 170 277.923 171.68C279.463 173.36 281.376 174.2 283.663 174.2Z" fill="#2F49C0"/>
</svg>
